<?xml version="1.0" encoding="UTF-8" standalone="no"?>
<!DOCTYPE svg PUBLIC "-//W3C//DTD SVG 20010904//EN"
"http://www.w3.org/TR/2001/REC-SVG-20010904/DTD/svg10.dtd">
<!-- Created with Sodipodi ("http://www.sodipodi.com/") -->
<svg
   width="510"
   height="457"
   id="svg607"
   sodipodi:version="0.29win"
   sodipodi:docname="C:\WINDOWS\Desktop\programs\cr2v\rametto"
   xmlns="http://www.w3.org/2000/svg"
   xmlns:sodipodi="http://sodipodi.sourceforge.net/DTD/sodipodi-0.dtd"
   xmlns:xlink="http://www.w3.org/1999/xlink">
  <defs
     id="defs699" />
  <sodipodi:namedview
     id="base" />
  <path
     style="fill:#1f891f;fill-opacity:1;stroke:#000000;stroke-opacity:1;stroke-width:0;stroke-dasharray:none;"
     d="M241 142 L241 143 C241.2 150.8 241.1 158.5 240 166 L240 167 L240 169 L240 170 L241 179 C239.9 178.6 239.9 180.4 241 180 L241 181 C240.6 182.1 242.4 182.1 242 181 C245.8 177.8 248.9 173.8 253.8 171.8 C260.9 142.6 307.9 143.3 316 170 C316.2 178.3 310.9 185 304.3 189.3 C316 209 285.5 225.3 269.8 213.3 C262.7 212.4 255.8 207.1 253.8 200.3 C252.1 199 251.5 197.1 250.8 195.3 C249.5 194.6 248 195.1 247.3 196.3 L245 203 C253.2 236.5 267.7 268.1 282.3 299.8 L292 312 L293 313 C292.9 314.9 294.9 312.9 293 313 L293 312 L292 304 C291.8 303.1 292.6 301.1 291 301 L291 299 C292.1 299.4 292.1 297.6 291 298 L290 288 C294.4 255.7 310.5 222 342.8 210.8 C347.7 208.1 352.2 203.3 358 203 L358 205 C350.2 221 346.3 239.7 335.8 254.8 L333.3 255.3 C318.8 270 304.1 286.3 301 308 C300.6 309.1 302.4 309.1 302 308 L305.8 305.8 C310 292.9 319.6 282.8 334 284 L335 284 L337 284 L344 284 C356.5 285 369.3 294.2 371 307 C370.7 338.4 319.9 336.7 308.8 313.3 L307.3 313.3 L306 319 C318.2 349.8 353.5 361.4 379.3 376.8 C382.7 378.4 382 374 382 372 C369.1 342.1 390 313.7 412.3 295.3 L417.8 293.3 L414 301 C413.3 328.8 389.2 348.4 389 376 L391.3 380.8 C405.7 385.8 421.6 391.4 436.8 391.3 C437.6 391.9 438.3 392.8 438 394 C434.8 400.4 427.3 403.8 421 406 L412.3 401.8 C386.4 381.2 356.7 404.4 330 408 C330.4 406.9 328.6 406.9 329 408 L326 408 L325 408 C320.1 409.2 316 408.5 311 408 L310 408 C288.7 407.4 273.3 391.6 256 384 C262.5 377.7 273.8 380.3 281 376 C282.1 376.4 282.1 374.6 281 375 L256 350 L253.3 351.3 C247.2 360.9 233.2 355.3 227 349 C214.4 368 190.4 346.7 191 329 C192.1 329.4 192.1 327.6 191 328 C189.6 308.8 199.5 284.6 219.8 284.8 L224 279 C214.8 276 202.1 276.4 192 278 C192.4 276.9 190.6 276.9 191 278 L185 279 C185.4 277.9 183.6 277.9 184 279 C164.9 279.9 144.4 284.5 127 275 L117 274 C117.4 272.9 115.6 272.9 116 274 C114.2 273.9 112.4 273.9 111 275 L109 275 C108.5 273.1 109.8 271.9 110.3 270.3 C120.2 262.1 128.7 252.8 142 253 L149 250 C174.5 250.6 196.4 262.6 220.8 267.3 C225.5 271.4 233.1 274.5 239.8 274.8 C234.8 265.7 223.4 259.6 216.3 252.8 C204.4 242.1 190 236.3 175 233 C174.9 231.4 172.9 232.2 172 232 L137 226 C136.9 224.4 134.9 225.2 134 225 C122.8 224.6 114.9 218.3 107 212 C98.78 205.5 87.28 198.7 82.25 189.3 L86 189 C103.1 195.7 121.7 192.5 139 197 C152 204.6 166.4 210.7 177.3 220.8 C178.3 221.2 179.7 221.2 180.8 220.8 L174 214 C170.8 209.5 166.7 205 162.3 201.8 C154.8 196.1 146.8 193.4 139 190 L139 189 C139.6 186.6 132.3 184.8 133 188 L133 189 L79.25 176.8 C61.98 167.9 52.6 152.2 39.25 138.8 C38.86 138 38.86 137 39.25 136.3 L41 135 C76.26 143.1 105.5 161.2 136.3 180.8 L141 182 C140.8 183.2 142.3 183 143 183 C142.9 184.9 144.9 182.9 143 183 C142.8 182 142 181.2 141 181 C123.3 158.4 103.9 132.6 100 103 C98.8 83.19 110.6 65.23 115.3 46.25 C117.6 45.62 116 41.24 118.8 42.25 C123.2 59.64 126.9 77.14 133 94 C134.3 104.4 135.2 115 138 125 C137.8 128.6 138.7 131.8 140 135 C140.9 169.1 162.3 197.9 187.3 218.8 L189.8 219.3 C212.5 244.3 239.4 264 262.3 288.8 C266.5 290 268.5 296.4 272.8 296.8 C270.4 289 267 280.7 262.3 273.8 L254 247 C243.6 223.4 216.8 218.8 196.8 207.3 C182.9 198.8 176 181.5 163 172 C168 167.7 175.5 173.6 181.8 173.3 C194.3 176.9 206.5 181.4 216.8 190.3 C224.1 197.7 233.1 203.5 238.3 212.8 L239.8 212.8 C234.3 189.9 215.1 176.9 198.3 162.8 C184.8 144.1 175.1 124.5 164.8 103.3 L152.3 90.25 C161.8 88.82 169.3 95.3 176.8 100.3 C186.7 107.9 194.9 116.5 202 127 C212.5 140.8 221.6 155 229 170 L232.8 177.8 C232.9 174.8 231.5 171.1 230 169 C223.3 147.9 211.5 128.1 211 105 L211 104 L210 91 L210 90 L210 84 L210 80 C210.8 68.52 212.1 57.17 214 46 L214 45 L215 15 L240 88 C242.2 105.4 243 124.3 241 142 z"
     id="path609" />
  <path
     style="fill:#b2b2b2"
     d="M218 38 C222.7 40.21 217.1 43.93 218 38 z"
     id="path610" />
  <path
     style="fill:#feffff;fill-opacity:1;"
     d="M222 83 C222 82.34 222.2 80.85 221 81 C221.8 68.2 217.5 54.54 219 43 L221 47 C223.4 79.9 230.3 111.8 231.8 144.8 C226.8 135.2 225.8 123 224 112 C223.2 102 221.7 92.72 222 83 z"
     id="path611" />
  <path
     style="fill:#b0b0b0"
     d="M116 60 C117.1 61.31 118.4 65.91 117 67 C115.6 65.55 115.1 61.84 116 60 z"
     id="path613" />
  <path
     style="fill:#adaeae"
     d="M116 74 C118.1 76.4 116.7 81.44 116.8 84.75 C114.9 81.7 115.6 77.78 116 74 z"
     id="path614" />
  <path
     style="fill:#babbbb"
     d="M116 86 C120.1 90.68 112.6 91.79 116 86 z"
     id="path617" />
  <path
     style="fill:#ffffff;fill-opacity:1;"
     d="M115 95 C115.7 94.98 117.2 94.82 117 96 C120 121.3 128.5 145.6 137.8 168.8 C121.6 148.8 118.2 120.6 115 95 z"
     id="path619" />
  <path
     style="fill:#feffff;fill-opacity:1;"
     d="M170 105 C188.5 123.1 204.2 144.2 217.8 166.3 L219.8 174.8 C205.4 150.1 185.7 128.1 170 105 z"
     id="path621" />
  <path
     style="fill:#ffffff;fill-opacity:1;"
     d="M53 145 L120.8 179.3 L120.8 180.8 C97.44 174.4 75.91 161.3 54.25 148.8 C52.89 147.9 52.87 146.4 53 145 z"
     id="path623" />
  <path
     style="fill:#ffffff;fill-opacity:1;"
     d="M267 165 C282.1 162.2 264.4 175.4 267 165 z"
     id="path624" />
  <path
     style="fill:#626262"
     d="M240 167 L240 166 C241.1 165.6 241.1 167.4 240 167 z"
     id="path625" />
  <path
     style="fill:#ffffff;fill-opacity:1;"
     d="M229 170 L230 169 C231.5 171.1 232.9 174.8 232.8 177.8 L229 170 z"
     id="path626" />
  <path
     style="fill:#626262"
     d="M240 170 L240 169 C241.1 168.6 241.1 170.4 240 170 z"
     id="path627" />
  <path
     style="fill:#717171"
     d="M141 175 C142.9 174.9 140.9 176.9 141 175 z"
     id="path628" />
  <path
     style="fill:#feffff;fill-opacity:1;"
     d="M176 177 C181.5 179.8 187.2 182.5 191.8 186.8 C186.8 184.7 178.5 182.2 176 177 z"
     id="path629" />
  <path
     style="fill:#9b9b9b"
     d="M241 179 L241 180 C239.9 180.4 239.9 178.6 241 179 z"
     id="path630" />
  <path
     style="fill:#717171"
     d="M122 181 C123.9 180.9 121.9 182.9 122 181 z"
     id="path631" />
  <path
     style="fill:#ababab"
     d="M143 183 C142.3 183 140.8 183.2 141 182 L141 181 C142 181.2 142.8 182 143 183 z"
     id="path632" />
  <path
     style="fill:#949494"
     d="M242 181 C242.4 182.1 240.6 182.1 241 181 L242 181 z"
     id="path633" />
  <path
     style="fill:#feffff;fill-opacity:1;"
     d="M251 181 C254.3 183.3 249 185.7 247.3 186.8 L251 181 z"
     id="path634" />
  <path
     style="fill:#f6f8f8;fill-opacity:1;"
     d="M124 182 C126.8 182.2 130.6 182.8 131.8 185.8 C129.2 185.7 124.2 185.1 124 182 z"
     id="path635" />
  <path
     style="fill:#787878"
     d="M143 183 C144.9 182.9 142.9 184.9 143 183 z"
     id="path636" />
  <path
     style="fill:#626262"
     d="M134 189 L133 189 L133 188 L134 189 z"
     id="path637" />
  <path
     style="fill:#6c6d6d"
     d="M134 189 C137.2 188.3 134.7 191.5 134 189 z"
     id="path638" />
  <path
     style="fill:#a2a2a2"
     d="M139 189 L139 190 C136.8 190.6 136.8 188.4 139 189 z"
     id="path639" />
  <path
     style="fill:#b1b2b2"
     d="M198 191 C203.4 190.8 198.1 195.6 198 191 z"
     id="path640" />
  <path
     style="fill:#717171"
     d="M202 194 C203.9 193.9 201.9 195.9 202 194 z"
     id="path641" />
  <path
     style="fill:#ffffff;fill-opacity:1;"
     d="M204 195 C208.4 194.5 203.5 199.4 204 195 z"
     id="path642" />
  <path
     style="fill:#fdfdfd;fill-opacity:1;"
     d="M215 203 C212.1 202.8 208.2 199.6 207.3 197.3 C210.8 197.2 213.2 200.2 215 203 z"
     id="path643" />
  <path
     style="fill:#feffff;fill-opacity:1;"
     d="M166 222 C166.2 223.2 164.7 223 164 223 L160.3 222.8 L159.8 221.3 L103 202 L107 201 C127.6 205.2 147.7 211.8 166 222 z"
     id="path644" />
  <path
     style="fill:#000000;fill-opacity:2.09587e-06;"
     d="M218 205 C216.7 205.3 215.3 204.3 215 203 C216.3 202.7 217.7 203.7 218 205 z"
     id="path645" />
  <path
     style="fill:#909090"
     d="M358 205 L358 203 C359.3 202.8 359.3 205.2 358 205 z"
     id="path646" />
  <path
     style="fill:#7f7f7f"
     d="M219 206 L218 205 L219 206 z"
     id="path647" />
  <path
     style="fill:#7f7f7f"
     d="M220 207 L219 206 L220 207 z"
     id="path648" />
  <path
     style="fill:#787878"
     d="M220 207 C221.9 206.9 219.9 208.9 220 207 z"
     id="path649" />
  <path
     style="fill:#a7a8a8"
     d="M340 219 C340.3 214.1 345 217.2 340 219 z"
     id="path650" />
  <path
     style="fill:#ffffff;fill-opacity:1;"
     d="M340 219 L338.8 222.8 C320.8 240.3 307.4 263.9 299.8 287.8 L297.3 290.8 L299 280 C309.2 257.7 320.7 234.6 340 219 z"
     id="path651"
     transform="translate(0,5.43594e-06)" />
  <path
     style="fill:#8f8f8f"
     d="M164 223 C164.7 223 166.2 223.2 166 222 C169.1 222.9 164.3 225.6 164 223 z"
     id="path652" />
  <path
     style="fill:#919191"
     d="M137 226 C136.1 225.8 134.1 226.6 134 225 C134.9 225.2 136.9 224.4 137 226 z"
     id="path653" />
  <path
     style="fill:#919191"
     d="M175 233 C174.1 232.8 172.1 233.6 172 232 C172.9 232.2 174.9 231.4 175 233 z"
     id="path654" />
  <path
     style="fill:#ffffff;fill-opacity:1;"
     d="M165 263 C164.6 264.1 166.4 264.1 166 263 C179.1 265.8 194.3 264.1 206 270 C205.9 271.6 203.9 270.8 203 271 L161 264 L165 263 z"
     id="path655"
     transform="translate(0.000000,-7.629395e-6)" />
  <path
     style="fill:#1f891f;fill-opacity:1;"
     d="M166 263 C166.4 264.1 164.6 264.1 165 263 L166 263 z"
     id="path656" />
  <path
     style="fill:#b1b1b1"
     d="M148 264 C153.5 264.3 145.2 268.1 148 264 z"
     id="path657" />
  <path
     style="fill:#8d8d8d"
     d="M152 264 C155.2 263.3 152.7 266.5 152 264 z"
     id="path658" />
  <path
     style="fill:#969696"
     d="M155 264 C159.4 263 156.7 266.8 155 264 z"
     id="path659" />
  <path
     style="fill:#717171"
     d="M159 264 C160.9 263.9 158.9 265.9 159 264 z"
     id="path660" />
  <path
     style="fill:#337733;fill-opacity:0.91992;"
     d="M117 274 L116 274 C115.6 272.9 117.4 272.9 117 274 z"
     id="path661" />
  <path
     style="fill:#1f891f;fill-opacity:1;stroke:#1f891f;stroke-opacity:1;"
     d="M111 275 C111.2 276.3 108.8 276.3 109 275 L111 275 z"
     id="path662" />
  <path
     style="fill:#1f891f;fill-opacity:1;"
     d="M192 278 L191 278 C190.6 276.9 192.4 276.9 192 278 z"
     id="path663" />
  <path
     style="fill:#1f891f;fill-opacity:1;"
     d="M185 279 L184 279 C183.6 277.9 185.4 277.9 185 279 z"
     id="path664" />
  <path
     style="fill:#ffffff;fill-opacity:1;stroke:#ffffff;stroke-opacity:1;"
     d="M236 282 L248.8 287.3 L256.3 294.8 L258.8 295.3 C290.2 323 318.7 354.9 357.8 374.3 L359.8 376.8 C331.1 372.8 311 346.3 280 348 L268 347 C265.6 345.4 263.1 344.8 260.3 344.8 C264.9 321.6 257.1 293.9 233.3 286.8 L236 282 z"
     id="path665" />
  <path
     style="fill:#1f891f;fill-opacity:1;"
     d="M344 284 L337 284 C338 282.4 343 282.4 344 284 z"
     id="path667" />
  <path
     style="fill:#717171"
     d="M296 292 C297.9 291.9 295.9 293.9 296 292 z"
     id="path668" />
  <path
     style="fill:#ffffff;fill-opacity:1;"
     d="M325 296 C332.4 297.5 316.8 305.1 321 298 C321.2 295.7 324.8 298.3 325 296 z"
     id="path669" />
  <path
     style="fill:#1f891f;fill-opacity:1;"
     d="M291 299 L291 298 C292.1 297.6 292.1 299.4 291 299 z"
     id="path670" />
  <path
     style="fill:#1f891f;fill-opacity:1;"
     d="M292 304 C290.4 303.9 291.2 301.9 291 301 C292.6 301.1 291.8 303.1 292 304 z"
     id="path671" />
  <path
     style="fill:#feffff;fill-opacity:1;"
     d="M225 306 C228.3 306.6 228.1 312.6 227.8 315.8 C223.3 315.6 224.8 309 225 306 z"
     id="path672" />
  <path
     style="fill:#ffffff;fill-opacity:1;"
     d="M405 306 C407.4 306.8 404.2 309.1 404.8 310.8 C396.1 325.7 387.2 342 385 360 L382.3 365.8 C382.2 343.9 393 323.1 405 306 z"
     id="path673" />
  <path
     style="fill:#949494"
     d="M302 308 C302.4 309.1 300.6 309.1 301 308 L302 308 z"
     id="path674" />
  <path
     style="fill:#9b9b9b"
     d="M293 312 L293 313 L292 312 L293 312 z"
     id="path675" />
  <path
     style="fill:#787878"
     d="M293 313 C294.9 312.9 292.9 314.9 293 313 z"
     id="path676" />
  <path
     style="fill:#1f891f;fill-opacity:1;"
     d="M191 329 L191 328 C192.1 327.6 192.1 329.4 191 329 z"
     id="path677" />
  <path
     style="fill:#ffffff;fill-opacity:1;"
     d="M288 365 C284 365.8 279 362.6 278.3 359.3 C281.3 359.9 286.4 362.2 288 365 z"
     id="path678" />
  <path
     style="fill:#feffff;fill-opacity:1;"
     d="M326 377 C325.6 378.1 327.4 378.1 327 377 C331 377.5 336.2 378.1 338.8 380.8 C320.8 379.2 302.5 376.1 288 365 C300.7 369 313 374 326 377 z"
     id="path679" />
  <path
     style="fill:#9c9c9c"
     d="M281 376 L281 375 C282.1 374.6 282.1 376.4 281 376 z"
     id="path680" />
  <path
     style="fill:#1f891f;fill-opacity:1;"
     d="M327 377 C327.4 378.1 325.6 378.1 326 377 L327 377 z"
     id="path681" />
  <path
     style="fill:#8d8d8d"
     d="M285 391 C287.5 391.7 284.3 394.2 285 391 z"
     id="path682" />
  <path
     style="fill:#b1b1b1"
     d="M362 391 C367.5 391.3 359.2 395.1 362 391 z"
     id="path683" />
  <path
     style="fill:#9e9f9f"
     d="M367 391 C371.8 390.2 369.1 394.7 367 391 z"
     id="path684" />
  <path
     style="fill:#727272"
     d="M287 392 C288.9 391.9 286.9 393.9 287 392 z"
     id="path685" />
  <path
     style="fill:#ffffff;fill-opacity:1;"
     d="M305 393 C304.6 394.1 306.4 394.1 306 393 L307 393 C306.6 394.1 308.4 394.1 308 393 C319.1 393.8 329 394.7 340 393 C339.6 394.1 341.4 394.1 341 393 L359.8 392.3 C357.2 394.5 352.7 395 349 395 C349.4 393.9 347.6 393.9 348 395 C333 397.7 319.4 393.4 305 396 C303 394.4 300.4 395.1 298 395 C298.4 393.9 296.6 393.9 297 395 L296 395 C296.4 393.9 294.6 393.9 295 395 C292.9 395.1 288.4 395.5 289.3 392.3 L305 393 z"
     id="path686"
     transform="translate(0,5.43594e-06)" />
  <path
     style="fill:#626262"
     d="M306 393 C306.4 394.1 304.6 394.1 305 393 L306 393 z"
     id="path687" />
  <path
     style="fill:#626262"
     d="M308 393 C308.4 394.1 306.6 394.1 307 393 L308 393 z"
     id="path688" />
  <path
     style="fill:#1f891f;fill-opacity:1;"
     d="M341 393 C341.4 394.1 339.6 394.1 340 393 L341 393 z"
     id="path689" />
  <path
     style="fill:#626262"
     d="M296 395 L295 395 C294.6 393.9 296.4 393.9 296 395 z"
     id="path690" />
  <path
     style="fill:#626262"
     d="M298 395 L297 395 C296.6 393.9 298.4 393.9 298 395 z"
     id="path691" />
  <path
     style="fill:#1f891f;fill-opacity:1;"
     d="M349 395 L348 395 C347.6 393.9 349.4 393.9 349 395 z"
     id="path692"
     transform="translate(0,5.43594e-06)" />
  <path
     style="fill:#1f891f;fill-opacity:1;"
     d="M330 408 L329 408 C328.6 406.9 330.4 406.9 330 408 z"
     id="path693" />
  <path
     style="fill:#707070"
     d="M25 457 L24 457 C23.57 455.9 25.43 455.9 25 457 z"
     id="path697" />
</svg>
